<?xml version="1.0" encoding="UTF-8"?>
<!DOCTYPE svg PUBLIC "-//W3C//DTD SVG 1.1//EN" "http://www.w3.org/Graphics/SVG/1.1/DTD/svg11.dtd">
<!-- Creator: CorelDRAW -->
<svg xmlns="http://www.w3.org/2000/svg" xml:space="preserve" width="4.1315in" height="1.343in" version="1.1" style="shape-rendering:geometricPrecision; text-rendering:geometricPrecision; image-rendering:optimizeQuality; fill-rule:evenodd; clip-rule:evenodd"
viewBox="0 0 1051.99 341.96"
 xmlns:xlink="http://www.w3.org/1999/xlink"
 xmlns:xodm="http://www.corel.com/coreldraw/odm/2003">
 <defs>
  <style type="text/css">
   <![CDATA[
    .fil0 {fill:#000}
    .fil1 {fill:white}
   ]]>
  </style>
 </defs>
 <g id="Layer_x0020_1">
  <metadata id="CorelCorpID_0Corel-Layer"/>
  <path class="fil0" d="M18.53 2.84c-24.54,8.63 -17.35,43.09 -17.35,70.56l0 178.25c0,21.58 -5.52,68.52 7.31,81.78 12.47,12.9 60.6,7.34 81.79,7.34 41.72,0 255.14,2.14 266.01,-1.45 22.9,-7.56 15.6,-47.57 15.6,-70.7l0 -178.25c0,-107.85 24.48,-89.13 -177.63,-89.13 -24.63,0 -164.36,-2.41 -175.74,1.59z"/>
  <path class="fil1" d="M167.44 49.57c-70.23,13.35 -112.74,71.04 -102.72,140.73 8.89,61.89 67.06,113.77 141.1,102.86 62.41,-9.19 113.79,-68.77 102.31,-142.99 -9.08,-58.68 -69.35,-114.16 -140.69,-100.61z"/>
  <path class="fil0" d="M666.75 162.52l0 93.37c0,16.01 4.34,18.47 16.06,24.96 7.6,4.21 19.35,13.24 29.02,11.76 4.95,-0.76 46.19,-24.99 52.58,-28.9 24.74,-15.17 19.24,-10.6 19.24,-60.87 0,-20.66 3.07,-61.67 -2.8,-76.94 -16.55,-2.39 -49.41,22.55 -64.04,30.73 -17.81,9.95 -17.03,6.89 -16.88,31.31 0.34,54.28 -7.19,78.91 23.99,60.77 11.23,-6.53 25.06,-9.89 26.45,-24.55 1.03,-10.86 4.09,-42.15 -8.5,-41.84 -13.43,0.32 -7.3,29.03 -9.18,41.16l-13.74 7.28 -1.08 -55.9c12.9,-5.1 36.88,-23.04 48.21,-23.92l0.43 77.36c0,15.65 -1.42,14.73 -12.08,21.16 -47.28,28.51 -43.47,30.31 -69.42,12.34l-0.09 -105.12c22.23,-14.02 32.98,-12.95 31.19,-28.34 -12.24,-7.77 -16.95,0.67 -29.07,7.05 -14.12,7.43 -20.29,7.99 -20.29,27.13z"/>
  <path class="fil0" d="M801.46 158.28l0 99.74c0,18.22 9.5,19.94 23.3,27.33 18.66,9.99 16.9,11.29 35.63,0.07 70.01,-41.91 56.94,-8.18 56.94,-142 0,-34.37 -19.14,-14.26 -68.51,13.74 -12.98,7.36 -15.04,6.76 -15.04,24.46 0,17.77 -2.05,57.64 2.64,72.67 15.8,2.5 16.94,-3.51 30.9,-10.79 20.34,-10.61 17.45,-14.68 17.45,-44.9 0,-15.99 -10.8,-22.83 -16.22,-11.44 -3.3,6.92 -0.98,27.51 -1.86,36.79l-14 7.04 -0.88 -56.11c14.79,-5.5 33.83,-21.71 48.17,-24.33l0.62 82c0,13.32 -3.07,12.01 -14.82,18.76 -7.86,4.51 -13.99,7.55 -21.7,12.32 -21.87,13.53 -24.16,13.72 -45.15,-2.1l-0.12 -104.57c24.99,-16.43 34.24,-12.9 31.3,-28.92 -11.13,-6.13 -18.2,1.01 -28.03,6.59 -11.95,6.79 -20.61,8.09 -20.61,23.66z"/>
  <path class="fil0" d="M84.75 110.03l68.7 40.55c-5.38,18.86 -9.31,29.53 4.88,45.71 15.53,17.71 26.49,13.02 48.66,8.66l39.59 67.44c12.42,-7.2 24.18,-16.88 33.45,-28.33 3.19,-3.95 6.22,-9.23 8.67,-12.57l-68.91 -40.01c6,-18.87 8.19,-32.88 -5.42,-46.91 -14.4,-14.85 -27.32,-12.34 -47.7,-6.77l-40.62 -68.08c-13.94,5.57 -33.4,27.4 -41.31,40.31z"/>
  <path class="fil0" d="M1000.67 224.28c-17.59,7.31 -33.06,14.23 -31.5,27.37 10.98,7.85 14.53,1.42 24.95,-4.39 39.3,-21.94 19.66,-13.05 25.04,-91.65l14.45 -5.65 0.8 92.21c-8.08,5.85 -51.52,34.29 -61.62,31.16 -6.01,-1.87 -16.23,-8.83 -20.22,-13.2 -2.44,-24.38 3.51,-99.66 -3.11,-114.26 -13.9,-4.94 -14.36,3 -14.25,16.51 0.19,23.5 -3.58,102.36 3.72,110.68 3.88,4.42 17.51,11 22.41,13.69 10.89,5.99 14.13,9.53 26.26,2.85 16.59,-9.14 32.35,-18.26 48.56,-27.94 20.47,-12.22 15.01,-14.57 15.01,-58.82 0,-12.67 2.77,-67.55 -1.87,-74.37 -7.39,-10.85 -45.29,16.31 -47.08,20.63 -3.19,7.72 -0.94,61.66 -1.54,75.18z"/>
  <path class="fil0" d="M631.48 79.58l0.37 188.53 -14.92 -6.07c-3.93,-26.19 -1.02,-87.48 -0.67,-116.59 0.09,-7.12 2.32,-18.4 -6.77,-20.27 -10.36,-2.14 -10.2,9.81 -10.19,18.11l0.03 117.01c0.67,16.19 9.18,16.49 30.46,29.14 23.71,14.09 20,-10.35 19.97,-29.3l0.08 -176.26c-0.23,-12.03 -0.7,-13.34 -9.98,-18.94 -41.12,-24.83 -29.42,-18.52 -94.71,17.7 -6.25,3.47 -16.69,7.41 -10.06,16.8 5.11,7.23 13.84,0.44 19.69,-2.9 69.28,-39.55 46.48,-30.84 76.69,-16.95z"/>
  <path class="fil0" d="M565.48 262.29l-13.96 6.83c-4.48,-32.04 5.28,-121.45 -4.49,-140.58 -18.65,-1.14 -14.31,12.93 -14.26,29.72 0.09,27.97 -3.08,118.56 2.58,133.89 11.2,2.7 11.08,1.5 19.88,-4.19 15.61,-10.09 27.03,-10.44 28.35,-27.67 1.84,-24.04 -4.08,-128.52 0.63,-139.73 2.8,-4.19 0.16,-1.43 4.5,-4.96 1.61,-1.31 3.31,-2.18 5.26,-3.26 8.12,-4.48 19.32,-8.09 21.45,-14.79 6.56,-20.64 -24.41,-3.48 -29.93,-0.07 -8.42,5.19 -18.08,7.03 -19.39,18.44 -4.94,43.05 3.48,101.08 -0.61,146.37z"/>
  <path class="fil0" d="M481.6 254.18c7.45,-22.01 -0.25,-86.81 3.4,-117.07 4.23,-1.99 8.64,-4.69 14.17,-5.74 2.65,15.34 1.35,95.15 1.09,120.34 -0.15,14.44 -2.17,26.43 14.5,21.12 4.71,-11.47 2.01,-114.86 2.27,-142.16 0.17,-18.47 0.77,-31.43 -19.01,-21.04 -42.75,22.45 -31.02,18.47 -31.21,114.43 -0.04,17.76 -5.11,33.75 14.8,30.11z"/>
  <path class="fil0" d="M433.3 86.13l0 171.89c0,16.29 7.15,17.75 18.86,24.32 9.98,5.59 19.59,15.54 29.39,8.07 8.92,-11.21 -19.53,-23.38 -30.21,-28.3l0.03 -181.97c7.61,-4.3 16.12,-8.53 23.26,-12.82 13.39,-8.06 10.61,-20.72 -1.49,-18.76 -3.36,0.54 -20.05,10.99 -24.89,13.59 -12.37,6.66 -14.96,6.67 -14.96,23.98z"/>
  <path class="fil1" d="M175.27 142.85c-39.82,17.43 -12.51,72.28 23.56,56.13 37.35,-16.73 12.28,-71.81 -23.56,-56.13z"/>
  <path class="fil0" d="M546.22 48.44c-11.5,-0.85 -34.45,15.71 -45.28,21.76 -1.92,1.07 -52.93,24.32 -28.2,32.11 6.64,2.09 53.55,-27.53 66.4,-34.17 11.01,-5.69 14.16,-7.94 7.08,-19.7z"/>
  <path class="fil0" d="M967.74 141.3l0 59.42c0,22.39 17.78,23.34 17.78,0l0 -59.42c0,-23.36 -17.78,-21.44 -17.78,0z"/>
  <path class="fil0" d="M182.46 153.78c-26.75,8.22 -12.72,42.45 10.2,34.79 21.59,-7.22 11.6,-41.49 -10.2,-34.79z"/>
 </g>
</svg>
