<?xml version="1.0" encoding="UTF-8"?>
<!DOCTYPE svg PUBLIC "-//W3C//DTD SVG 1.1//EN" "http://www.w3.org/Graphics/SVG/1.1/DTD/svg11.dtd">
<!-- Creator: CorelDRAW -->
<svg xmlns="http://www.w3.org/2000/svg" xml:space="preserve" width="1.46488in" height="1.34301in" version="1.1" style="shape-rendering:geometricPrecision; text-rendering:geometricPrecision; image-rendering:optimizeQuality; fill-rule:evenodd; clip-rule:evenodd"
viewBox="0 0 340.48 312.15"
 xmlns:xlink="http://www.w3.org/1999/xlink"
 xmlns:xodm="http://www.corel.com/coreldraw/odm/2003">
 <defs>
  <style type="text/css">
   <![CDATA[
    .fil0 {fill:black}
    .fil1 {fill:white}
   ]]>
  </style>
 </defs>
 <g id="Layer_x0020_1">
  <metadata id="CorelCorpID_0Corel-Layer"/>
  <path class="fil0" d="M16.91 2.6c-22.4,7.88 -15.84,39.33 -15.84,64.41l0 162.71c0,19.7 -5.04,62.55 6.67,74.65 11.38,11.78 55.32,6.7 74.66,6.7 38.08,0 232.9,1.95 242.82,-1.32 20.9,-6.9 14.24,-43.42 14.24,-64.54l0 -162.71c0,-98.45 22.35,-81.36 -162.14,-81.36 -22.48,0 -150.03,-2.2 -160.42,1.45l0.01 0.01z"/>
  <path class="fil1" d="M152.84 45.25c-64.11,12.19 -102.91,64.85 -93.76,128.46 8.11,56.49 61.21,103.85 128.8,93.89 56.97,-8.39 103.87,-62.77 93.39,-130.52 -8.29,-53.56 -63.3,-104.21 -128.42,-91.84l0 0.01z"/>
  <path class="fil0" d="M77.36 100.44l62.71 37.01c-4.91,17.22 -8.5,26.96 4.45,41.73 14.18,16.17 24.18,11.88 44.42,7.91l36.14 61.56c11.34,-6.57 22.07,-15.41 30.53,-25.86 2.91,-3.61 5.68,-8.43 7.91,-11.47l-62.9 -36.52c5.48,-17.23 7.48,-30.01 -4.95,-42.82 -13.14,-13.55 -24.94,-11.26 -43.54,-6.18l-37.08 -62.14c-12.72,5.08 -30.49,25.01 -37.71,36.8l0.01 -0z"/>
  <path class="fil1" d="M159.99 130.4c-36.35,15.91 -11.42,65.98 21.51,51.24 34.09,-15.27 11.21,-65.55 -21.51,-51.24z"/>
  <path class="fil0" d="M166.55 140.38c-24.42,7.5 -11.61,38.75 9.31,31.76 19.71,-6.59 10.59,-37.87 -9.31,-31.76z"/>
 </g>
</svg>
