<?xml version="1.0" encoding="UTF-8"?>
<!DOCTYPE svg PUBLIC "-//W3C//DTD SVG 1.1//EN" "http://www.w3.org/Graphics/SVG/1.1/DTD/svg11.dtd">
<!-- Creator: CorelDRAW -->
<svg xmlns="http://www.w3.org/2000/svg" xml:space="preserve" width="1.67361in" height="2.50694in" version="1.1" style="shape-rendering:geometricPrecision; text-rendering:geometricPrecision; image-rendering:optimizeQuality; fill-rule:evenodd; clip-rule:evenodd"
viewBox="0 0 1728.3 2588.86"
 xmlns:xlink="http://www.w3.org/1999/xlink"
 xmlns:xodm="http://www.corel.com/coreldraw/odm/2003">
 <defs>
  <style type="text/css">
   <![CDATA[
    .str0 {stroke:#BDBFC1;stroke-width:7.17;stroke-miterlimit:2.61313}
    .fil0 {fill:#201E1E}
    .fil1 {fill:#FCF1E2}
   ]]>
  </style>
 </defs>
 <g id="Layer_x0020_1">
  <metadata id="CorelCorpID_0Corel-Layer"/>
  <rect class="fil0 str0" x="3.59" y="3.59" width="1721.12" height="2581.68"/>
  <g id="_3125513438720">
   <path class="fil1" d="M233.25 1678.23c0,111.63 6.84,186.32 96.05,259.86 17.76,14.64 41.82,29.3 63.71,37.97 30.92,12.25 68.51,23.12 110.34,23.12l816.66 0c39.98,0 80.11,-9.75 108.17,-22.11 29.77,-13.12 57.83,-28.01 81.76,-51.71 83.22,-82.42 80.17,-154.18 80.17,-259.84 0,-64.61 -11.66,-133.92 -24.15,-188.75 -26.2,-114.94 -83.35,-234.97 -193.96,-289.05 -41.43,-20.26 -90.7,-30.63 -140.96,-30.63 -70,0 -223.9,218.35 -498.94,76.31 -45.32,-23.4 -97.75,-76.31 -149.3,-76.31 -187.88,0 -294,160.11 -325.98,325.44 -6,31.05 -12.47,60.91 -16.31,91.73 -4.24,34.16 -7.25,67.51 -7.25,103.96z"/>
   <path class="fil1" d="M509.71 744c0,49.96 -0.78,71.9 12.02,121.44 3.68,14.24 6.75,22.54 11.37,36.29l21.72 48.19c95.95,176.1 308.59,256.6 506.49,174.07 25.67,-10.7 69.43,-37.92 89.49,-56.68 44.93,-42.01 80.14,-77.04 107.8,-136.88 79.9,-172.84 24.63,-369.93 -124.67,-483.37 -37.39,-28.41 -83.4,-50.32 -128.47,-62.19 -27.17,-7.16 -56.19,-11.4 -85.65,-12.67l-37.68 0c-52.86,2.27 -105.21,14.13 -148.97,35.96 -124.08,61.92 -223.45,193.78 -223.45,335.82z"/>
  </g>
 </g>
</svg>
